# 3ds Max Wavefront OBJ Exporter v0.97b - (c)2007 guruware
# File Created: 25.05.2013 22:09:17

mtllib tablet.mtl

#
# object Box001
#

v  -0.1022 3.9331 6.8794
v  -0.1022 7.2597 -5.6994
v  5.8033 0.0000 -5.6994
v  5.8033 -0.2196 13.3951
v  11.7088 2.7133 -5.6994
v  11.7088 6.4311 10.3834
v  -0.1022 3.9845 -24.7283
v  5.8033 0.0000 -24.7283
v  11.7088 8.4820 -24.7283
v  -0.1022 7.7628 -32.8344
v  5.8033 3.2697 -39.3408
v  11.7088 4.1907 -35.1761
v  -0.1022 71.4353 8.9124
v  5.8033 71.4353 15.0113
v  5.8033 80.2757 -1.4449
v  -0.1022 75.8654 -5.6994
v  11.7088 71.4353 8.9124
v  11.7088 80.8626 -11.0438
v  5.8033 81.7166 -24.7283
v  -0.1022 72.6799 -24.7283
v  11.7088 74.0511 -24.7283
v  5.8033 78.7402 -46.0480
v  -0.1022 75.5174 -43.1656
v  11.7088 77.8197 -42.0456
v  5.8033 26.2467 15.7307
v  -0.1022 26.2467 8.7356
v  11.7088 26.2467 10.5174
v  5.8033 52.4934 12.3139
v  -0.1022 52.4934 4.1342
v  11.7088 52.4934 7.5653
v  11.7088 26.2467 -5.6994
v  11.7088 26.2467 -24.7283
v  11.7088 35.2846 -35.7122
v  11.7088 52.4934 -5.6994
v  11.7088 52.4934 -24.7283
v  11.7088 56.1513 -40.9393
v  5.8033 31.4041 -37.0402
v  -0.1022 33.1238 -34.1398
v  5.8033 55.9204 -48.2424
v  -0.1022 48.0800 -39.6208
v  -0.1022 26.2467 -24.7283
v  -0.1022 26.2467 -5.6994
v  -0.1022 52.4934 -24.7283
v  -0.1022 52.4934 -5.6994
# 44 vertices

vn -0.6294 -0.7753 -0.0531
vn -0.7516 -0.6565 -0.0635
vn -0.1659 -0.9808 -0.1027
vn 0.2414 -0.9674 0.0764
vn 0.4714 -0.8739 -0.1186
vn 0.7714 -0.6200 0.1433
vn -0.6014 -0.7976 -0.0459
vn 0.1059 -0.9944 0.0046
vn 0.7836 -0.6160 0.0806
vn -0.7560 -0.5933 -0.2765
vn -0.2126 -0.9430 -0.2559
vn 0.5064 -0.8603 -0.0588
vn -0.5020 0.7780 0.3778
vn 0.0067 0.8897 0.4565
vn -0.0743 0.9543 0.2895
vn -0.6823 0.7260 0.0865
vn 0.4036 0.8273 0.3908
vn -0.4651 0.8561 -0.2255
vn -0.0507 0.9987 -0.0075
vn -0.8058 0.5887 -0.0634
vn 0.7180 0.6945 0.0472
vn -0.2492 0.9680 -0.0300
vn -0.4217 0.8962 0.1379
vn 0.3825 0.9208 -0.0768
vn -0.7587 -0.0566 0.6490
vn -0.2995 -0.0588 0.9523
vn -0.0712 0.0169 0.9973
vn -0.7695 0.0186 0.6384
vn 0.4597 -0.0060 0.8881
vn 0.6476 0.0151 0.7618
vn -0.1294 0.0177 0.9914
vn -0.7994 -0.0008 0.6008
vn 0.6299 0.0206 0.7764
vn -0.0194 -0.1781 0.9838
vn -0.7076 -0.1728 0.6852
vn 0.6948 -0.0885 0.7137
vn 1.0000 0.0000 -0.0000
vn 0.5288 0.0567 -0.8468
vn 0.0374 0.0427 -0.9984
vn -0.0842 -0.1297 -0.9880
vn 0.4219 -0.2406 -0.8741
vn -0.7516 -0.0339 -0.6588
vn -0.5025 -0.1454 -0.8522
vn 0.0172 -0.1333 -0.9909
vn 0.7596 -0.0626 -0.6474
vn -0.6497 -0.2662 -0.7121
vn 0.1711 0.0336 -0.9847
vn 0.5560 -0.0424 -0.8301
vn -0.5527 0.0490 -0.8320
vn -1.0000 0.0000 -0.0000
# 50 vertex normals

vt 0.1940 0.4484 0.5906
vt 0.1873 0.4219 0.5906
vt 0.2019 0.4219 0.0000
vt 0.2024 0.4621 0.0000
vt 0.1965 0.4219 -0.5906
vt 0.1890 0.4558 -0.5906
vt 0.1939 0.3819 0.5906
vt 0.2019 0.3819 0.0000
vt 0.1849 0.3819 -0.5906
vt 0.1863 0.3648 0.5906
vt 0.1953 0.3511 0.0000
vt 0.1935 0.3599 -0.5906
vt 0.0582 0.4527 0.5906
vt 0.0582 0.4656 0.0000
vt 0.0404 0.4309 0.0000
vt 0.0492 0.4219 0.5906
vt 0.0582 0.4527 -0.5906
vt 0.0392 0.4107 -0.5906
vt 0.0375 0.3819 0.0000
vt 0.0556 0.3819 0.5906
vt 0.0529 0.3819 -0.5906
vt 0.0434 0.3369 0.0000
vt 0.0499 0.3430 0.5906
vt 0.0453 0.3454 -0.5906
vt 0.1491 0.4671 0.0000
vt 0.1491 0.4523 0.5906
vt 0.1491 0.4561 -0.5906
vt 0.0963 0.4599 0.0000
vt 0.0963 0.4427 0.5906
vt 0.0963 0.4499 -0.5906
vt 0.1491 0.4219 -0.5906
vt 0.1491 0.3819 -0.5906
vt 0.1309 0.3587 -0.5906
vt 0.0963 0.4219 -0.5906
vt 0.0963 0.3819 -0.5906
vt 0.0889 0.3477 -0.5906
vt 0.1387 0.3559 0.0000
vt 0.1353 0.3620 0.5906
vt 0.0894 0.3323 0.0000
vt 0.1052 0.3505 0.5906
vt 0.1491 0.3819 0.5906
vt 0.1491 0.4219 0.5906
vt 0.0963 0.3819 0.5906
vt 0.0963 0.4219 0.5906
# 44 texture coords

g Box001
usemtl wire_177027088
s 2
f 1/1/1 2/2/2 3/3/3 4/4/4 
f 3/3/3 5/5/5 6/6/6 4/4/4 
f 7/7/7 8/8/8 3/3/3 2/2/2 
f 8/8/8 9/9/9 5/5/5 3/3/3 
f 10/10/10 11/11/11 8/8/8 7/7/7 
f 8/8/8 11/11/11 12/12/12 9/9/9 
s 4
f 13/13/13 14/14/14 15/15/15 16/16/16 
f 17/17/17 18/18/18 15/15/15 14/14/14 
f 16/16/16 15/15/15 19/19/19 20/20/20 
f 18/18/18 21/21/21 19/19/19 15/15/15 
f 19/19/19 22/22/22 23/23/23 20/20/20 
f 19/19/19 21/21/21 24/24/24 22/22/22 
s 8
f 1/1/25 4/4/26 25/25/27 26/26/28 
f 6/6/29 27/27/30 25/25/27 4/4/26 
f 26/26/28 25/25/27 28/28/31 29/29/32 
f 27/27/30 30/30/33 28/28/31 25/25/27 
f 28/28/31 14/14/34 13/13/35 29/29/32 
f 28/28/31 30/30/33 17/17/36 14/14/34 
s 16
f 6/6/37 5/5/37 31/31/37 27/27/37 
f 9/9/37 32/32/37 31/31/37 5/5/37 
f 12/12/37 33/33/37 32/32/37 9/9/37 
f 31/31/37 34/34/37 30/30/37 27/27/37 
f 32/32/37 35/35/37 34/34/37 31/31/37 
f 33/33/37 36/36/37 35/35/37 32/32/37 
f 34/34/37 18/18/37 17/17/37 30/30/37 
f 34/34/37 35/35/37 21/21/37 18/18/37 
f 36/36/37 24/24/37 21/21/37 35/35/37 
s 32
f 12/12/38 11/11/39 37/37/40 33/33/41 
f 10/10/42 38/38/43 37/37/40 11/11/39 
f 33/33/41 37/37/40 39/39/44 36/36/45 
f 37/37/40 38/38/43 40/40/46 39/39/44 
f 39/39/44 22/22/47 24/24/48 36/36/45 
f 39/39/44 40/40/46 23/23/49 22/22/47 
s 64
f 10/10/50 7/7/50 41/41/50 38/38/50 
f 2/2/50 42/42/50 41/41/50 7/7/50 
f 2/2/50 1/1/50 26/26/50 42/42/50 
f 38/38/50 41/41/50 43/43/50 40/40/50 
f 42/42/50 44/44/50 43/43/50 41/41/50 
f 42/42/50 26/26/50 29/29/50 44/44/50 
f 40/40/50 43/43/50 20/20/50 23/23/50 
f 44/44/50 16/16/50 20/20/50 43/43/50 
f 44/44/50 29/29/50 13/13/50 16/16/50 
# 42 polygons

